<svg width="18" height="18" viewBox="0 0 18 18" fill="none" xmlns="http://www.w3.org/2000/svg">
<path d="M16 0H2.00002C0.899906 0 0 0.899906 0 2.00002V16C0 17.1001 0.899906 18 2.00002 18H16C17.1001 18 18 17.1001 18 16V2.00002C18 0.899906 17.1001 0 16 0ZM6.99998 14L2.00002 9L3.39989 7.60013L6.99998 11.2002L14.6001 3.60009L16 5.00002L6.99998 14Z" fill="white"/>
<path d="M16 0H2.00002C0.899906 0 0 0.899906 0 2.00002V16C0 17.1001 0.899906 18 2.00002 18H16C17.1001 18 18 17.1001 18 16V2.00002C18 0.899906 17.1001 0 16 0ZM6.99998 14L2.00002 9L3.39989 7.60013L6.99998 11.2002L14.6001 3.60009L16 5.00002L6.99998 14Z" fill="url(#paint0_linear_264_679)" fill-opacity="0.5"/>
<defs>
<linearGradient id="paint0_linear_264_679" x1="0" y1="9" x2="18" y2="9" gradientUnits="userSpaceOnUse">
<stop stop-color="#E69BF5"/>
<stop offset="0.533654" stop-color="#9203AD"/>
<stop offset="1" stop-color="#FEA942"/>
</linearGradient>
</defs>
</svg>
