<svg width="11" height="11" viewBox="0 0 11 11" fill="none" xmlns="http://www.w3.org/2000/svg">
<g clip-path="url(#clip0_257_956)">
<path d="M9.55156 2.1129C9.31746 1.87869 9.03951 1.6929 8.7336 1.56615C8.42768 1.43939 8.09978 1.37415 7.76864 1.37415C7.4375 1.37415 7.10961 1.43939 6.80369 1.56615C6.49777 1.6929 6.21982 1.87869 5.98573 2.1129L5.49989 2.59873L5.01406 2.1129C4.5412 1.64004 3.89987 1.37439 3.23114 1.37439C2.56242 1.37439 1.92108 1.64004 1.44823 2.1129C0.975366 2.58576 0.709717 3.22709 0.709717 3.89582C0.709717 4.56454 0.975366 5.20587 1.44823 5.67873L1.93406 6.16457L5.49989 9.7304L9.06573 6.16457L9.55156 5.67873C9.78576 5.44464 9.97155 5.16669 10.0983 4.86077C10.2251 4.55485 10.2903 4.22696 10.2903 3.89582C10.2903 3.56468 10.2251 3.23678 10.0983 2.93086C9.97155 2.62494 9.78576 2.347 9.55156 2.1129Z" stroke="#5C5C5C" stroke-linecap="round" stroke-linejoin="round"/>
</g>
<defs>
<clipPath id="clip0_257_956">
<rect width="11" height="11" fill="white"/>
</clipPath>
</defs>
</svg>
