<svg width="11" height="11" viewBox="0 0 11 11" fill="none" xmlns="http://www.w3.org/2000/svg">
<path d="M9.55156 2.60814C9.31746 2.37393 9.03951 2.18814 8.7336 2.06138C8.42768 1.93463 8.09978 1.86938 7.76864 1.86938C7.4375 1.86938 7.10961 1.93463 6.80369 2.06138C6.49777 2.18814 6.21982 2.37393 5.98573 2.60814L5.49989 3.09397L5.01406 2.60814C4.5412 2.13528 3.89987 1.86963 3.23114 1.86963C2.56242 1.86963 1.92108 2.13528 1.44823 2.60814C0.975366 3.081 0.709717 3.72233 0.709717 4.39105C0.709717 5.05978 0.975366 5.70111 1.44823 6.17397L1.93406 6.6598L5.49989 10.2256L9.06573 6.6598L9.55156 6.17397C9.78576 5.93988 9.97155 5.66193 10.0983 5.35601C10.2251 5.05009 10.2903 4.72219 10.2903 4.39105C10.2903 4.05991 10.2251 3.73202 10.0983 3.4261C9.97155 3.12018 9.78576 2.84223 9.55156 2.60814Z" fill="white"/>
<path d="M9.55156 2.60814C9.31746 2.37393 9.03951 2.18814 8.7336 2.06138C8.42768 1.93463 8.09978 1.86938 7.76864 1.86938C7.4375 1.86938 7.10961 1.93463 6.80369 2.06138C6.49777 2.18814 6.21982 2.37393 5.98573 2.60814L5.49989 3.09397L5.01406 2.60814C4.5412 2.13528 3.89987 1.86963 3.23114 1.86963C2.56242 1.86963 1.92108 2.13528 1.44823 2.60814C0.975366 3.081 0.709717 3.72233 0.709717 4.39105C0.709717 5.05978 0.975366 5.70111 1.44823 6.17397L1.93406 6.6598L5.49989 10.2256L9.06573 6.6598L9.55156 6.17397C9.78576 5.93988 9.97155 5.66193 10.0983 5.35601C10.2251 5.05009 10.2903 4.72219 10.2903 4.39105C10.2903 4.05991 10.2251 3.73202 10.0983 3.4261C9.97155 3.12018 9.78576 2.84223 9.55156 2.60814Z" fill="url(#paint0_linear_389_1291)" fill-opacity="0.5"/>
<path d="M9.55156 2.60814C9.31746 2.37393 9.03951 2.18814 8.7336 2.06138C8.42768 1.93463 8.09978 1.86938 7.76864 1.86938C7.4375 1.86938 7.10961 1.93463 6.80369 2.06138C6.49777 2.18814 6.21982 2.37393 5.98573 2.60814L5.49989 3.09397L5.01406 2.60814C4.5412 2.13528 3.89987 1.86963 3.23114 1.86963C2.56242 1.86963 1.92108 2.13528 1.44823 2.60814C0.975366 3.081 0.709717 3.72233 0.709717 4.39105C0.709717 5.05978 0.975366 5.70111 1.44823 6.17397L1.93406 6.6598L5.49989 10.2256L9.06573 6.6598L9.55156 6.17397C9.78576 5.93988 9.97155 5.66193 10.0983 5.35601C10.2251 5.05009 10.2903 4.72219 10.2903 4.39105C10.2903 4.05991 10.2251 3.73202 10.0983 3.4261C9.97155 3.12018 9.78576 2.84223 9.55156 2.60814Z" stroke="white" stroke-linecap="round" stroke-linejoin="round"/>
<path d="M9.55156 2.60814C9.31746 2.37393 9.03951 2.18814 8.7336 2.06138C8.42768 1.93463 8.09978 1.86938 7.76864 1.86938C7.4375 1.86938 7.10961 1.93463 6.80369 2.06138C6.49777 2.18814 6.21982 2.37393 5.98573 2.60814L5.49989 3.09397L5.01406 2.60814C4.5412 2.13528 3.89987 1.86963 3.23114 1.86963C2.56242 1.86963 1.92108 2.13528 1.44823 2.60814C0.975366 3.081 0.709717 3.72233 0.709717 4.39105C0.709717 5.05978 0.975366 5.70111 1.44823 6.17397L1.93406 6.6598L5.49989 10.2256L9.06573 6.6598L9.55156 6.17397C9.78576 5.93988 9.97155 5.66193 10.0983 5.35601C10.2251 5.05009 10.2903 4.72219 10.2903 4.39105C10.2903 4.05991 10.2251 3.73202 10.0983 3.4261C9.97155 3.12018 9.78576 2.84223 9.55156 2.60814Z" stroke="url(#paint1_linear_389_1291)" stroke-opacity="0.5" stroke-linecap="round" stroke-linejoin="round"/>
<defs>
<linearGradient id="paint0_linear_389_1291" x1="0.709717" y1="6.04751" x2="10.2903" y2="6.04751" gradientUnits="userSpaceOnUse">
<stop stop-color="#E69BF5"/>
<stop offset="0.533654" stop-color="#9203AD"/>
<stop offset="1" stop-color="#FEA942"/>
</linearGradient>
<linearGradient id="paint1_linear_389_1291" x1="0.709717" y1="6.04751" x2="10.2903" y2="6.04751" gradientUnits="userSpaceOnUse">
<stop stop-color="#E69BF5"/>
<stop offset="0.533654" stop-color="#9203AD"/>
<stop offset="1" stop-color="#FEA942"/>
</linearGradient>
</defs>
</svg>
