<svg width="50" height="50" viewBox="0 0 50 50" fill="none" xmlns="http://www.w3.org/2000/svg">
<path fill-rule="evenodd" clip-rule="evenodd" d="M3.04878 25C3.04878 12.8766 12.8766 3.04878 25 3.04878C37.1234 3.04878 46.9512 12.8766 46.9512 25C46.9512 37.1234 37.1234 46.9512 25 46.9512C12.8766 46.9512 3.04878 37.1234 3.04878 25ZM25 0C11.1929 0 0 11.1929 0 25C0 38.8071 11.1929 50 25 50C38.8071 50 50 38.8071 50 25C50 11.1929 38.8071 0 25 0ZM37.9682 19.6755C38.5635 19.0802 38.5635 18.1149 37.9682 17.5196C37.3729 16.9243 36.4076 16.9243 35.8123 17.5196L22.598 30.734C22.241 31.091 21.6616 31.0912 21.3042 30.7338L15.4072 24.8367C14.8119 24.2414 13.8466 24.2414 13.2513 24.8367C12.656 25.432 12.656 26.3973 13.2513 26.9926L19.1484 32.8896C20.696 34.4372 23.2058 34.4379 24.7538 32.8898L37.9682 19.6755Z" fill="white"/>
<path fill-rule="evenodd" clip-rule="evenodd" d="M3.04878 25C3.04878 12.8766 12.8766 3.04878 25 3.04878C37.1234 3.04878 46.9512 12.8766 46.9512 25C46.9512 37.1234 37.1234 46.9512 25 46.9512C12.8766 46.9512 3.04878 37.1234 3.04878 25ZM25 0C11.1929 0 0 11.1929 0 25C0 38.8071 11.1929 50 25 50C38.8071 50 50 38.8071 50 25C50 11.1929 38.8071 0 25 0ZM37.9682 19.6755C38.5635 19.0802 38.5635 18.1149 37.9682 17.5196C37.3729 16.9243 36.4076 16.9243 35.8123 17.5196L22.598 30.734C22.241 31.091 21.6616 31.0912 21.3042 30.7338L15.4072 24.8367C14.8119 24.2414 13.8466 24.2414 13.2513 24.8367C12.656 25.432 12.656 26.3973 13.2513 26.9926L19.1484 32.8896C20.696 34.4372 23.2058 34.4379 24.7538 32.8898L37.9682 19.6755Z" fill="white"/>
<path fill-rule="evenodd" clip-rule="evenodd" d="M3.04878 25C3.04878 12.8766 12.8766 3.04878 25 3.04878C37.1234 3.04878 46.9512 12.8766 46.9512 25C46.9512 37.1234 37.1234 46.9512 25 46.9512C12.8766 46.9512 3.04878 37.1234 3.04878 25ZM25 0C11.1929 0 0 11.1929 0 25C0 38.8071 11.1929 50 25 50C38.8071 50 50 38.8071 50 25C50 11.1929 38.8071 0 25 0ZM37.9682 19.6755C38.5635 19.0802 38.5635 18.1149 37.9682 17.5196C37.3729 16.9243 36.4076 16.9243 35.8123 17.5196L22.598 30.734C22.241 31.091 21.6616 31.0912 21.3042 30.7338L15.4072 24.8367C14.8119 24.2414 13.8466 24.2414 13.2513 24.8367C12.656 25.432 12.656 26.3973 13.2513 26.9926L19.1484 32.8896C20.696 34.4372 23.2058 34.4379 24.7538 32.8898L37.9682 19.6755Z" fill="url(#paint0_linear_61_2320)" fill-opacity="0.5"/>
<defs>
<linearGradient id="paint0_linear_61_2320" x1="0" y1="25" x2="50" y2="25" gradientUnits="userSpaceOnUse">
<stop stop-color="#E69BF5"/>
<stop offset="0.533654" stop-color="#9203AD"/>
<stop offset="1" stop-color="#FEA942"/>
</linearGradient>
</defs>
</svg>
