<svg width="11" height="10" viewBox="0 0 11 10" fill="none" xmlns="http://www.w3.org/2000/svg">
<path d="M9.34184 1.23875C9.10775 1.00455 8.8298 0.818758 8.52388 0.692C8.21796 0.565242 7.89007 0.5 7.55893 0.5C7.22779 0.5 6.89989 0.565242 6.59397 0.692C6.28805 0.818758 6.01011 1.00455 5.77601 1.23875L5.29018 1.72459L4.80434 1.23875C4.33148 0.765895 3.69015 0.500245 3.02143 0.500245C2.3527 0.500245 1.71137 0.765895 1.23851 1.23875C0.765649 1.71161 0.5 2.35295 0.5 3.02167C0.5 3.69039 0.765649 4.33173 1.23851 4.80459L1.72434 5.29042L5.29018 8.85625L8.85601 5.29042L9.34184 4.80459C9.57605 4.57049 9.76184 4.29254 9.88859 3.98662C10.0154 3.68071 10.0806 3.35281 10.0806 3.02167C10.0806 2.69053 10.0154 2.36263 9.88859 2.05672C9.76184 1.7508 9.57605 1.47285 9.34184 1.23875Z" stroke="#8F8F8F" stroke-linecap="round" stroke-linejoin="round"/>
</svg>
