<svg width="152" height="149" viewBox="0 0 152 149" fill="none" xmlns="http://www.w3.org/2000/svg">
<g clip-path="url(#clip0_61_2152)">
<mask id="mask0_61_2152" style="mask-type:luminance" maskUnits="userSpaceOnUse" x="36" y="0" width="80" height="80">
<path d="M116 0H36V80H116V0Z" fill="white"/>
</mask>
<g mask="url(#mask0_61_2152)">
<path d="M62.7986 0H115.604L89.2013 30H36.396L62.7986 0Z" fill="url(#paint0_linear_61_2152)"/>
<path d="M62.7986 50H115.604L89.2013 80H36.396L62.7986 50Z" fill="url(#paint1_linear_61_2152)"/>
<path d="M62.4026 50H115.208L88.8053 30H36L62.4026 50Z" fill="#8D4E99"/>
</g>
<path d="M18.0839 101.296H13.9559V103.636H18.0839V101.296ZM15.3839 110.488V107.044H10.9919V105.964H21.0719V107.044H16.6919V110.488H15.3839ZM12.6599 104.728V100.204H19.3679V104.728H12.6599ZM23.675 101.632V106.036C24.139 106.036 24.647 106.008 25.199 105.952C25.751 105.896 26.283 105.816 26.795 105.712L26.939 106.78C26.267 106.916 25.543 107.02 24.767 107.092C23.991 107.156 23.195 107.18 22.379 107.164V100.528H26.135V101.632H23.675ZM27.503 99.916H28.751V103.048H29.867V99.736H31.115V110.236H29.867V104.14H28.751V109.852H27.503V99.916ZM41.122 99.736V103.132H42.898V104.236H41.122V110.236H39.826V99.736H41.122ZM32.434 106.624C33.666 106.136 34.674 105.456 35.458 104.584C36.242 103.712 36.718 102.74 36.886 101.668H33.13V100.528H38.302C38.302 101.448 38.17 102.276 37.906 103.012C37.65 103.748 37.294 104.408 36.838 104.992C36.406 105.552 35.89 106.052 35.29 106.492C34.698 106.924 34.026 107.308 33.274 107.644L32.434 106.624ZM55.3564 99.736V110.236H54.0604V105.532H51.6964V104.44H54.0604V102.748H51.9364V102.52C51.8324 103.032 51.6844 103.504 51.4924 103.936C51.3004 104.368 51.0644 104.772 50.7844 105.148C50.3284 105.756 49.7844 106.276 49.1524 106.708C48.5284 107.14 47.8204 107.5 47.0284 107.788L46.2844 106.732C47.1324 106.42 47.8604 106.048 48.4684 105.616C49.0764 105.184 49.5684 104.668 49.9444 104.068L46.6684 104.368L46.4164 103.18L50.4604 102.928C50.5884 102.52 50.6724 102.072 50.7124 101.584H46.9324V100.468H52.1044C52.1124 100.892 52.1004 101.288 52.0684 101.656H54.0604V99.736H55.3564ZM64.5954 99.736H65.8914V110.236H64.5954V99.736ZM62.9874 101.572H60.8274V102.292C60.8274 103.356 61.0634 104.252 61.5354 104.98C62.0074 105.692 62.6074 106.26 63.3354 106.684L62.5194 107.668C61.9914 107.308 61.5114 106.892 61.0794 106.42C60.6474 105.94 60.3354 105.436 60.1434 104.908C59.9274 105.484 59.6074 106.024 59.1834 106.528C58.7674 107.024 58.2834 107.452 57.7314 107.812L56.9154 106.9C57.2754 106.676 57.6074 106.42 57.9114 106.132C58.2234 105.844 58.4954 105.508 58.7274 105.124C58.9514 104.74 59.1274 104.32 59.2554 103.864C59.3914 103.408 59.4594 102.892 59.4594 102.316V101.572H57.2514V100.468H62.9874V101.572ZM76.0425 110.584H68.9865V107.536H70.2825V109.492H76.0425V110.584ZM67.3785 106.48V105.4H77.4585V106.48H67.3785ZM75.9345 104.152H69.0585V100.144H70.3785V103.06H75.9345V104.152ZM89.7248 110.584H82.6688V107.536H83.9648V109.492H89.7248V110.584ZM86.1008 102.292C85.9808 102.492 85.7928 102.72 85.5368 102.976C85.2888 103.224 85.0088 103.456 84.6968 103.672C84.3848 103.896 84.0528 104.096 83.7008 104.272C83.3488 104.448 82.9688 104.596 82.5608 104.716L81.8888 103.696C82.3208 103.576 82.7368 103.416 83.1368 103.216C83.5448 103.016 83.9168 102.78 84.2528 102.508C84.5728 102.26 84.8408 101.972 85.0568 101.644C85.2729 101.308 85.3808 100.968 85.3808 100.624V99.856H86.8208V100.624C86.8208 100.968 86.9288 101.308 87.1448 101.644C87.3608 101.972 87.6248 102.26 87.9368 102.508C88.2728 102.78 88.6408 103.016 89.0408 103.216C89.4488 103.416 89.8728 103.576 90.3128 103.696L89.6408 104.716C89.2248 104.596 88.8408 104.448 88.4888 104.272C88.1368 104.088 87.8048 103.888 87.4928 103.672C87.1808 103.456 86.8968 103.22 86.6408 102.964C86.3928 102.708 86.2128 102.484 86.1008 102.292ZM85.6928 108.448V106.468H81.0608V105.388H91.1408V106.468H87.0008V108.448H85.6928ZM91.8239 105.496C92.9679 105.088 93.8999 104.568 94.6199 103.936C95.34 103.296 95.8079 102.504 96.0239 101.56H92.4119V100.408H97.4639C97.4639 101.224 97.3359 101.952 97.0799 102.592C96.824 103.232 96.476 103.804 96.0359 104.308C95.5799 104.812 95.0519 105.244 94.452 105.604C93.8599 105.964 93.2239 106.268 92.5439 106.516L91.8239 105.496ZM102.3 103.78H100.608V107.572H99.3119V99.736H100.608V102.676H102.3V103.78ZM100.884 110.488H94.2719V106.924H95.5919V109.396H100.884V110.488ZM102.551 106.744C102.815 106.744 103.099 106.74 103.403 106.732C103.715 106.724 104.035 106.716 104.363 106.708C104.691 106.692 105.023 106.68 105.359 106.672C105.703 106.656 106.039 106.64 106.367 106.624C107.023 106.584 107.651 106.544 108.251 106.504C108.851 106.456 109.343 106.404 109.727 106.348L109.847 107.416C109.647 107.44 109.419 107.468 109.163 107.5C108.907 107.524 108.631 107.548 108.335 107.572C108.047 107.596 107.743 107.62 107.423 107.644C107.103 107.66 106.783 107.68 106.463 107.704C106.135 107.728 105.803 107.748 105.467 107.764C105.131 107.78 104.799 107.796 104.471 107.812C104.143 107.82 103.823 107.828 103.511 107.836C103.199 107.844 102.907 107.848 102.635 107.848L102.551 106.744ZM110.315 99.736H111.611V110.236H110.315V99.736ZM104.519 102.784C104.519 103.016 104.555 103.228 104.627 103.42C104.707 103.604 104.815 103.764 104.951 103.9C105.087 104.036 105.247 104.144 105.431 104.224C105.615 104.296 105.815 104.332 106.031 104.332C106.439 104.332 106.795 104.188 107.099 103.9C107.395 103.612 107.543 103.24 107.543 102.784C107.543 102.344 107.395 101.98 107.099 101.692C106.803 101.396 106.447 101.248 106.031 101.248C105.815 101.248 105.615 101.288 105.431 101.368C105.247 101.44 105.087 101.548 104.951 101.692C104.815 101.828 104.707 101.992 104.627 102.184C104.555 102.368 104.519 102.568 104.519 102.784ZM103.211 102.784C103.211 102.4 103.283 102.052 103.427 101.74C103.579 101.42 103.783 101.144 104.039 100.912C104.295 100.672 104.591 100.488 104.927 100.36C105.271 100.224 105.639 100.156 106.031 100.156C106.415 100.156 106.775 100.224 107.111 100.36C107.455 100.488 107.755 100.672 108.011 100.912C108.267 101.144 108.471 101.42 108.623 101.74C108.775 102.052 108.851 102.4 108.851 102.784C108.851 103.168 108.775 103.52 108.623 103.84C108.471 104.16 108.267 104.436 108.011 104.668C107.755 104.9 107.455 105.084 107.111 105.22C106.775 105.348 106.415 105.412 106.031 105.412C105.639 105.412 105.271 105.348 104.927 105.22C104.591 105.084 104.295 104.9 104.039 104.668C103.783 104.436 103.579 104.16 103.427 103.84C103.283 103.52 103.211 103.168 103.211 102.784ZM118.945 110.74V107.764H123.997V106.936H118.945V105.868H125.293V108.796H120.229V109.66H125.557V110.74H118.945ZM123.985 102.676H121.777V101.572H123.985V99.736H125.293V105.364H123.985V102.676ZM122.149 105.208C121.597 104.944 121.097 104.62 120.649 104.236C120.209 103.844 119.869 103.42 119.629 102.964C119.405 103.468 119.069 103.94 118.621 104.38C118.173 104.812 117.649 105.188 117.049 105.508L116.233 104.5C117.033 104.124 117.677 103.624 118.165 103C118.669 102.368 118.921 101.64 118.921 100.816V99.856H120.301V100.78C120.301 101.564 120.545 102.248 121.033 102.832C121.521 103.408 122.153 103.856 122.929 104.176L122.149 105.208ZM129.792 110.656V106.696H136.248V110.656H129.792ZM134.964 107.788H131.088V109.564H134.964V107.788ZM134.184 105.892H132.936V103.18H131.604V102.088H132.936V99.916H134.184V105.892ZM136.236 106.072H134.988V99.736H136.236V106.072ZM127.392 102.244H129.888V101.212H127.392V100.108H131.148V103.348H128.688V104.452C129.192 104.452 129.74 104.42 130.332 104.356C130.924 104.292 131.496 104.2 132.048 104.08L132.216 105.184C131.528 105.328 130.8 105.436 130.032 105.508C129.264 105.572 128.384 105.596 127.392 105.58V102.244ZM139.8 108.784L138.756 111.28H137.712L138.348 108.784H139.8Z" fill="#C1C1C1"/>
<path d="M21.4091 124.648C20.4757 124.181 19.2251 123.948 17.6571 123.948C15.2304 123.948 14.0171 124.844 14.0171 126.636C14.0171 127.495 14.7731 128.4 16.2851 129.352C17.5357 130.155 18.5157 130.789 19.2251 131.256C19.9344 131.723 20.3637 132.031 20.5131 132.18C22.0251 133.505 22.7811 135.036 22.7811 136.772C22.7811 138.713 22.0344 140.235 20.5411 141.336C19.2717 142.269 17.7504 142.736 15.9771 142.736C14.2037 142.736 12.5797 142.409 11.1051 141.756L11.4691 138.648C12.8691 139.432 14.4091 139.824 16.0891 139.824C18.5717 139.824 19.8131 138.732 19.8131 136.548C19.8131 135.689 19.0571 134.756 17.5451 133.748C16.1824 132.833 15.1464 132.133 14.4371 131.648C13.7464 131.163 13.3731 130.901 13.3171 130.864C11.8237 129.576 11.0771 128.167 11.0771 126.636C11.0771 124.9 11.7491 123.509 13.0931 122.464C14.3064 121.531 15.8371 121.064 17.6851 121.064C19.2157 121.064 20.6251 121.307 21.9131 121.792L21.4091 124.648ZM38.5429 124.256H32.8589V142.204H29.8069V124.256H24.1509V121.484H38.5429V124.256ZM51.8968 134.084L48.5088 125.46L45.0928 134.084H51.8968ZM58.3927 142.316H55.1447L53.0168 136.968H43.9447L41.7887 142.316H38.5687L47.0807 121.428H50.1328L58.3927 142.316ZM77.2667 130.472V141.308C75.2693 142.148 73.0854 142.568 70.7147 142.568C67.504 142.568 64.9468 141.579 63.0428 139.6C61.1761 137.659 60.2427 135.073 60.2427 131.844C60.2427 128.615 61.2041 126.029 63.1268 124.088C65.0494 122.109 67.588 121.12 70.7427 121.12C73.1693 121.12 75.0827 121.456 76.4827 122.128L76.1187 125.096C74.756 124.349 72.964 123.976 70.7427 123.976C68.4467 123.976 66.6268 124.713 65.2827 126.188C63.976 127.607 63.3228 129.492 63.3228 131.844C63.3228 134.215 63.9573 136.109 65.2267 137.528C66.5333 138.984 68.3627 139.712 70.7147 139.712C72.2267 139.712 73.3747 139.563 74.1587 139.264V133.328H69.8468V130.472H77.2667ZM92.6137 142.316H81.9737V121.428H92.3057V124.284H85.0257V130.108H91.9137V132.964H85.0257V139.432H92.6137V142.316ZM99.8076 139.74H96.3356V136.38H99.8076V139.74ZM99.8076 127.336H96.3356V124.004H99.8076V127.336ZM112.4 123.892C110.459 123.892 108.928 124.713 107.808 126.356C106.781 127.831 106.268 129.66 106.268 131.844C106.268 134.047 106.781 135.885 107.808 137.36C108.928 139.003 110.459 139.824 112.4 139.824C114.341 139.824 115.872 139.003 116.992 137.36C118 135.885 118.504 134.047 118.504 131.844C118.504 129.679 118 127.849 116.992 126.356C115.872 124.713 114.341 123.892 112.4 123.892ZM112.4 121.064C115.387 121.064 117.711 122.175 119.372 124.396C120.847 126.375 121.575 128.857 121.556 131.844C121.519 135.111 120.753 137.687 119.26 139.572C117.636 141.625 115.349 142.652 112.4 142.652C109.469 142.652 107.173 141.625 105.512 139.572C103.981 137.649 103.216 135.073 103.216 131.844C103.216 128.82 103.944 126.328 105.4 124.368C107.043 122.165 109.376 121.064 112.4 121.064ZM140.431 142.316H137.071L128.111 126.664V142.316H125.087V121.428H128.307L137.407 137.332V121.428H140.431V142.316Z" fill="#1A1A1A"/>
</g>
<defs>
<linearGradient id="paint0_linear_61_2152" x1="76" y1="0" x2="76" y2="30" gradientUnits="userSpaceOnUse">
<stop offset="0.283654" stop-color="#C66CD9"/>
<stop offset="1" stop-color="#693C73"/>
</linearGradient>
<linearGradient id="paint1_linear_61_2152" x1="76" y1="50" x2="76" y2="80" gradientUnits="userSpaceOnUse">
<stop offset="0.283654" stop-color="#C66CD9"/>
<stop offset="1" stop-color="#693C73"/>
</linearGradient>
<clipPath id="clip0_61_2152">
<rect width="152" height="149" fill="white"/>
</clipPath>
</defs>
</svg>
