<svg width="17" height="17" viewBox="0 0 17 17" fill="none" xmlns="http://www.w3.org/2000/svg">
<path d="M6.375 12.75V3.54167L14.875 2.125V11.3333" stroke="black" stroke-width="2" stroke-linecap="round" stroke-linejoin="round"/>
<path d="M4.25 14.875C5.4236 14.875 6.375 13.9236 6.375 12.75C6.375 11.5764 5.4236 10.625 4.25 10.625C3.07639 10.625 2.125 11.5764 2.125 12.75C2.125 13.9236 3.07639 14.875 4.25 14.875Z" stroke="black" stroke-width="2" stroke-linecap="round" stroke-linejoin="round"/>
<path d="M12.75 13.4583C13.9236 13.4583 14.875 12.5069 14.875 11.3333C14.875 10.1597 13.9236 9.20833 12.75 9.20833C11.5764 9.20833 10.625 10.1597 10.625 11.3333C10.625 12.5069 11.5764 13.4583 12.75 13.4583Z" stroke="black" stroke-width="2" stroke-linecap="round" stroke-linejoin="round"/>
</svg>
