<svg width="17" height="17" viewBox="0 0 17 17" fill="none" xmlns="http://www.w3.org/2000/svg">
<path d="M12.7499 1.41667H4.24992C3.46752 1.41667 2.83325 2.05093 2.83325 2.83333V14.1667C2.83325 14.9491 3.46752 15.5833 4.24992 15.5833H12.7499C13.5323 15.5833 14.1666 14.9491 14.1666 14.1667V2.83333C14.1666 2.05093 13.5323 1.41667 12.7499 1.41667Z" stroke="black" stroke-width="2" stroke-linecap="round" stroke-linejoin="round"/>
<path d="M8.50008 12.75C10.0649 12.75 11.3334 11.4815 11.3334 9.91667C11.3334 8.35186 10.0649 7.08333 8.50008 7.08333C6.93527 7.08333 5.66675 8.35186 5.66675 9.91667C5.66675 11.4815 6.93527 12.75 8.50008 12.75Z" stroke="black" stroke-width="2" stroke-linecap="round" stroke-linejoin="round"/>
<path d="M8.5 4.25H8.50708" stroke="black" stroke-width="2" stroke-linecap="round" stroke-linejoin="round"/>
</svg>
