<svg width="126" height="25" viewBox="0 0 126 25" fill="none" xmlns="http://www.w3.org/2000/svg">
<mask id="mask0_54_1178" style="mask-type:luminance" maskUnits="userSpaceOnUse" x="0" y="0" width="26" height="25">
<path d="M26 0H0V25H26V0Z" fill="white"/>
</mask>
<g mask="url(#mask0_54_1178)">
<path d="M8.70951 0H25.8713L17.2903 9.375H0.128662L8.70951 0Z" fill="url(#paint0_linear_54_1178)"/>
<path d="M8.70951 15.625H25.8713L17.2903 25H0.128662L8.70951 15.625Z" fill="url(#paint1_linear_54_1178)"/>
<path d="M8.58085 15.625H25.7426L17.1617 9.375H0L8.58085 15.625Z" fill="#8D4E99"/>
</g>
<path d="M38.7599 7.32001C38.0932 6.98668 37.1999 6.82001 36.0799 6.82001C34.3466 6.82001 33.4799 7.46001 33.4799 8.74001C33.4799 9.35334 34.0199 10 35.0999 10.68C35.9932 11.2533 36.6932 11.7067 37.1999 12.04C37.7066 12.3733 38.0132 12.5933 38.1199 12.7C39.1999 13.6467 39.7399 14.74 39.7399 15.98C39.7399 17.3667 39.2066 18.4533 38.1399 19.24C37.2332 19.9067 36.1466 20.24 34.8799 20.24C33.6132 20.24 32.4532 20.0067 31.3999 19.54L31.6599 17.32C32.6599 17.88 33.7599 18.16 34.9599 18.16C36.7332 18.16 37.6199 17.38 37.6199 15.82C37.6199 15.2067 37.0799 14.54 35.9999 13.82C35.0266 13.1667 34.2866 12.6667 33.7799 12.32C33.2866 11.9733 33.0199 11.7867 32.9799 11.76C31.9132 10.84 31.3799 9.83334 31.3799 8.74001C31.3799 7.50001 31.8599 6.50668 32.8199 5.76001C33.6866 5.09334 34.7799 4.76001 36.0999 4.76001C37.1932 4.76001 38.1999 4.93334 39.1199 5.28001L38.7599 7.32001ZM50.9983 7.04001H46.9383V19.86H44.7583V7.04001H40.7183V5.06001H50.9983V7.04001ZM60.5368 14.06L58.1168 7.90001L55.6768 14.06H60.5368ZM65.1768 19.94H62.8568L61.3368 16.12H54.8568L53.3168 19.94H51.0168L57.0968 5.02001H59.2768L65.1768 19.94ZM78.6582 11.48V19.22C77.2315 19.82 75.6715 20.12 73.9782 20.12C71.6848 20.12 69.8582 19.4133 68.4982 18C67.1648 16.6133 66.4982 14.7667 66.4982 12.46C66.4982 10.1533 67.1848 8.30668 68.5582 6.92001C69.9315 5.50668 71.7448 4.80001 73.9982 4.80001C75.7315 4.80001 77.0982 5.04001 78.0982 5.52001L77.8382 7.64001C76.8648 7.10668 75.5848 6.84001 73.9982 6.84001C72.3582 6.84001 71.0582 7.36668 70.0982 8.42001C69.1648 9.43334 68.6982 10.78 68.6982 12.46C68.6982 14.1533 69.1515 15.5067 70.0582 16.52C70.9915 17.56 72.2982 18.08 73.9782 18.08C75.0582 18.08 75.8782 17.9733 76.4382 17.76V13.52H73.3582V11.48H78.6582ZM89.6204 19.94H82.0204V5.02001H89.4004V7.06001H84.2004V11.22H89.1204V13.26H84.2004V17.88H89.6204V19.94ZM94.7588 18.1H92.2788V15.7H94.7588V18.1ZM94.7588 9.24001H92.2788V6.86001H94.7588V9.24001ZM103.754 6.78001C102.367 6.78001 101.274 7.36668 100.474 8.54001C99.7402 9.59334 99.3735 10.9 99.3735 12.46C99.3735 14.0333 99.7402 15.3467 100.474 16.4C101.274 17.5733 102.367 18.16 103.754 18.16C105.14 18.16 106.234 17.5733 107.034 16.4C107.754 15.3467 108.114 14.0333 108.114 12.46C108.114 10.9133 107.754 9.60668 107.034 8.54001C106.234 7.36668 105.14 6.78001 103.754 6.78001ZM103.754 4.76001C105.887 4.76001 107.547 5.55334 108.734 7.14001C109.787 8.55334 110.307 10.3267 110.294 12.46C110.267 14.7933 109.72 16.6333 108.654 17.98C107.494 19.4467 105.86 20.18 103.754 20.18C101.66 20.18 100.02 19.4467 98.8335 17.98C97.7402 16.6067 97.1935 14.7667 97.1935 12.46C97.1935 10.3 97.7135 8.52001 98.7535 7.12001C99.9268 5.54668 101.594 4.76001 103.754 4.76001ZM123.776 19.94H121.376L114.976 8.76001V19.94H112.816V5.02001H115.116L121.616 16.38V5.02001H123.776V19.94Z" fill="#1A1A1A"/>
<defs>
<linearGradient id="paint0_linear_54_1178" x1="13" y1="0" x2="13" y2="9.375" gradientUnits="userSpaceOnUse">
<stop offset="0.283654" stop-color="#C66CD9"/>
<stop offset="1" stop-color="#693C73"/>
</linearGradient>
<linearGradient id="paint1_linear_54_1178" x1="13" y1="15.625" x2="13" y2="25" gradientUnits="userSpaceOnUse">
<stop offset="0.283654" stop-color="#C66CD9"/>
<stop offset="1" stop-color="#693C73"/>
</linearGradient>
</defs>
</svg>
