<svg width="121" height="24" viewBox="0 0 121 24" fill="none" xmlns="http://www.w3.org/2000/svg">
<g clip-path="url(#clip0_162_1732)">
<mask id="mask0_162_1732" style="mask-type:luminance" maskUnits="userSpaceOnUse" x="0" y="0" width="25" height="24">
<path d="M24.9683 0H0V24H24.9683V0Z" fill="white"/>
</mask>
<g mask="url(#mask0_162_1732)">
<path d="M8.36387 0H24.8446L16.6042 9H0.123535L8.36387 0Z" fill="url(#paint0_linear_162_1732)"/>
<path d="M8.36387 15H24.8446L16.6042 24H0.123535L8.36387 15Z" fill="url(#paint1_linear_162_1732)"/>
<path d="M8.24034 15H24.7211L16.4807 9H0L8.24034 15Z" fill="#8D4E99"/>
</g>
<path d="M37.2219 7.02718C36.5817 6.70718 35.7238 6.54718 34.6483 6.54718C32.9837 6.54718 32.1514 7.16158 32.1514 8.39038C32.1514 8.97918 32.67 9.59998 33.7071 10.2528C34.565 10.8031 35.2372 11.2384 35.7238 11.5584C36.2104 11.8783 36.5048 12.0895 36.6073 12.192C37.6444 13.1008 38.163 14.1504 38.163 15.3408C38.163 16.672 37.6509 17.7151 36.6265 18.4704C35.7558 19.1104 34.7123 19.4304 33.4959 19.4304C32.2794 19.4304 31.1655 19.2064 30.154 18.7584L30.4037 16.6272C31.364 17.1648 32.4203 17.4336 33.5727 17.4336C35.2756 17.4336 36.1271 16.6848 36.1271 15.1872C36.1271 14.5984 35.6086 13.9584 34.5714 13.2672C33.6368 12.64 32.9261 12.16 32.4395 11.8272C31.9658 11.4943 31.7097 11.3152 31.6713 11.2896C30.6469 10.4064 30.1348 9.43998 30.1348 8.39038C30.1348 7.19998 30.5957 6.24638 31.5176 5.52958C32.3499 4.88958 33.3998 4.56958 34.6675 4.56958C35.7174 4.56958 36.6841 4.73598 37.5676 5.06878L37.2219 7.02718ZM48.9747 6.75838H45.0758V19.0656H42.9823V6.75838H39.1026V4.85758H48.9747V6.75838ZM58.1346 13.4976L55.8107 7.58398L53.4675 13.4976H58.1346ZM62.5905 19.1424H60.3626L58.9029 15.4752H52.68L51.2012 19.1424H48.9924L54.8312 4.81918H56.9246L62.5905 19.1424ZM75.5369 11.0208V18.4512C74.1669 19.0272 72.6688 19.3152 71.0427 19.3152C68.8403 19.3152 67.0862 18.6367 65.7801 17.28C64.4996 15.9487 63.8595 14.176 63.8595 11.9616C63.8595 9.74715 64.5188 7.97438 65.8377 6.64318C67.1565 5.28638 68.8979 4.60798 71.0619 4.60798C72.7264 4.60798 74.0388 4.83838 74.9992 5.29918L74.7495 7.33438C73.8147 6.82238 72.5855 6.56638 71.0619 6.56638C69.4869 6.56638 68.2385 7.07198 67.3166 8.08318C66.4203 9.05598 65.9722 10.3488 65.9722 11.9616C65.9722 13.5871 66.4075 14.8864 67.2782 15.8592C68.1745 16.8576 69.4293 17.3568 71.0427 17.3568C72.0798 17.3568 72.8673 17.2543 73.405 17.0496V12.9792H70.4473V11.0208H75.5369ZM86.0641 19.1424H78.7657V4.81918H85.8529V6.77758H80.8592V10.7712H85.584V12.7296H80.8592V17.1648H86.0641V19.1424ZM90.9986 17.376H88.617V15.072H90.9986V17.376ZM90.9986 8.87038H88.617V6.58558H90.9986V8.87038ZM99.6368 6.50878C98.3048 6.50878 97.2552 7.07198 96.4869 8.19838C95.7824 9.20958 95.4302 10.464 95.4302 11.9616C95.4302 13.4719 95.7824 14.7328 96.4869 15.744C97.2552 16.8703 98.3048 17.4336 99.6368 17.4336C100.968 17.4336 102.018 16.8703 102.787 15.744C103.478 14.7328 103.824 13.4719 103.824 11.9616C103.824 10.4767 103.478 9.22238 102.787 8.19838C102.018 7.07198 100.968 6.50878 99.6368 6.50878ZM99.6368 4.56958C101.685 4.56958 103.279 5.33118 104.419 6.85438C105.43 8.21118 105.93 9.91361 105.917 11.9616C105.891 14.2015 105.366 15.9679 104.342 17.2608C103.228 18.6688 101.659 19.3728 99.6368 19.3728C97.6259 19.3728 96.051 18.6688 94.9116 17.2608C93.8617 15.9424 93.3367 14.176 93.3367 11.9616C93.3367 9.88798 93.8361 8.17918 94.8348 6.83518C95.9616 5.32478 97.5625 4.56958 99.6368 4.56958ZM118.864 19.1424H116.559L110.413 8.40958V19.1424H108.339V4.81918H110.548L116.79 15.7248V4.81918H118.864V19.1424Z" fill="#1A1A1A"/>
</g>
<defs>
<linearGradient id="paint0_linear_162_1732" x1="12.4841" y1="0" x2="12.4841" y2="9" gradientUnits="userSpaceOnUse">
<stop offset="0.283654" stop-color="#C66CD9"/>
<stop offset="1" stop-color="#693C73"/>
</linearGradient>
<linearGradient id="paint1_linear_162_1732" x1="12.4841" y1="15" x2="12.4841" y2="24" gradientUnits="userSpaceOnUse">
<stop offset="0.283654" stop-color="#C66CD9"/>
<stop offset="1" stop-color="#693C73"/>
</linearGradient>
<clipPath id="clip0_162_1732">
<rect width="121" height="24" fill="white"/>
</clipPath>
</defs>
</svg>
